<?xml version="1.0" encoding="UTF-8" standalone="no"?>
<svg
   viewBox="0 0 1200 1380"
   role="img"
   aria-labelledby="title desc"
   version="1.1"
   id="svg32"
   sodipodi:docname="logo_source.svg"
   inkscape:version="1.4.3 (0d15f75, 2025-12-25)"
   inkscape:export-filename="logo_source.png"
   inkscape:export-xdpi="200"
   inkscape:export-ydpi="200"
   xmlns:inkscape="http://www.inkscape.org/namespaces/inkscape"
   xmlns:sodipodi="http://sodipodi.sourceforge.net/DTD/sodipodi-0.dtd"
   xmlns:xlink="http://www.w3.org/1999/xlink"
   xmlns="http://www.w3.org/2000/svg"
   xmlns:svg="http://www.w3.org/2000/svg">
  <sodipodi:namedview
     id="namedview32"
     pagecolor="#ffffff"
     bordercolor="#000000"
     borderopacity="0.25"
     inkscape:showpageshadow="2"
     inkscape:pageopacity="0.0"
     inkscape:pagecheckerboard="0"
     inkscape:deskcolor="#d1d1d1"
     inkscape:zoom="0.61956522"
     inkscape:cx="598.80702"
     inkscape:cy="819.12281"
     inkscape:window-width="1920"
     inkscape:window-height="1057"
     inkscape:window-x="1912"
     inkscape:window-y="-8"
     inkscape:window-maximized="1"
     inkscape:current-layer="svg32" />
  <title
     id="title">acousticTS hex logo</title>
  <desc
     id="desc">Hexagonal logo with sonar beams, a fish silhouette, and acoustic target strength lettering.</desc>
  <defs
     id="defs7">
    <linearGradient
       id="bg"
       x1="0"
       y1="0"
       x2="0"
       y2="1">
      <stop
         offset="0%"
         stop-color="#0e334f"
         id="stop1" />
      <stop
         offset="55%"
         stop-color="#136a85"
         id="stop2" />
      <stop
         offset="100%"
         stop-color="#d7efe9"
         id="stop3" />
    </linearGradient>
    <linearGradient
       id="beam"
       x1="0"
       y1="0"
       x2="1"
       y2="0">
      <stop
         offset="0%"
         stop-color="#8ef0ff"
         stop-opacity="0"
         id="stop4" />
      <stop
         offset="100%"
         stop-color="#8ef0ff"
         stop-opacity="0.95"
         id="stop5" />
    </linearGradient>
    <linearGradient
       id="fishFill"
       x1="255.21536"
       y1="673.3816"
       x2="691.98333"
       y2="1110.1496"
       gradientTransform="scale(1.343963,0.7440681)"
       gradientUnits="userSpaceOnUse">
      <stop
         offset="0%"
         stop-color="#ffd166"
         id="stop6" />
      <stop
         offset="100%"
         stop-color="#f08c2b"
         id="stop7" />
    </linearGradient>
    <clipPath
       id="hexClip">
      <path
         d="M600 45 L1085 325 L1085 885 L600 1165 L115 885 L115 325 Z"
         id="path7" />
    </clipPath>
    <linearGradient
       inkscape:collect="always"
       xlink:href="#beam"
       id="linearGradient34"
       x1="189.1925"
       y1="471.37175"
       x2="650.20443"
       y2="471.37175"
       gradientTransform="scale(1.2949773,0.77221429)"
       gradientUnits="userSpaceOnUse" />
    <linearGradient
       inkscape:collect="always"
       xlink:href="#beam"
       id="linearGradient35"
       x1="145.67416"
       y1="706.37101"
       x2="557.72391"
       y2="706.37101"
       gradientTransform="scale(1.6818357,0.59458839)"
       gradientUnits="userSpaceOnUse" />
  </defs>
  <path
     d="M600 20 L1107 313 L1107 899 L600 1192 L93 899 L93 313 Z"
     fill="#f4efe5"
     id="path8" />
  <path
     d="M600 58 L1074 332 L1074 880 L600 1154 L126 880 L126 332 Z"
     fill="url(#bg)"
     id="path9" />
  <g
     clip-path="url(#hexClip)"
     id="g30"
     transform="translate(0,-26)">
    <path
       d="m 0,940 c 220,-80 360,-110 600,-90 205,18 380,72 600,190 v 340 H 0 Z"
       fill="#b9dfd6"
       fill-opacity="0.78"
       id="path10" />
    <path
       d="m 0,1010 c 245,-70 435,-75 620,-42 240,44 390,112 580,242 v 170 H 0 Z"
       fill="#86c7bc"
       fill-opacity="0.75"
       id="path11" />
    <g
       opacity="0.9"
       id="g14">
      <circle
         cx="248"
         cy="542"
         r="18"
         fill="#dff7ff"
         id="circle11" />
      <circle
         cx="248"
         cy="542"
         r="88"
         fill="none"
         stroke="#dff7ff"
         stroke-width="10"
         stroke-opacity="0.42"
         id="circle12" />
      <circle
         cx="248"
         cy="542"
         r="164"
         fill="none"
         stroke="#dff7ff"
         stroke-width="8"
         stroke-opacity="0.28"
         id="circle13" />
      <circle
         cx="248"
         cy="542"
         r="238"
         fill="none"
         stroke="#dff7ff"
         stroke-width="6"
         stroke-opacity="0.18"
         id="circle14" />
    </g>
    <path
       d="m 245,512 v 60 L 842,720 V 364 Z"
       fill="url(#beam)"
       opacity="0.82"
       id="path14"
       style="fill:url(#linearGradient34)" />
    <path
       d="m 245,528 v 28 L 938,665 V 420 Z"
       fill="url(#beam)"
       opacity="0.32"
       id="path15"
       style="fill:url(#linearGradient35)" />
    <g
       opacity="0.22"
       id="g20">
      <path
         d="m 408,592 c 112,-94 292,-116 407,-62 43,18 79,43 115,82 -51,14 -76,38 -95,78 -52,94 -186,150 -306,133 -73,-10 -133,-43 -186,-99 32,-37 52,-79 65,-132 z"
         fill="#082033"
         transform="translate(0,14)"
         id="path16" />
      <path
         d="m 342,724 c -50,12 -90,38 -131,79 9,-70 24,-123 48,-168 31,31 57,61 83,89 z"
         fill="#082033"
         transform="translate(0,14)"
         id="path17" />
      <path
         d="m 827,609 c 25,2 48,13 65,33"
         fill="none"
         stroke="#082033"
         stroke-width="9"
         stroke-linecap="round"
         transform="translate(0,14)"
         id="path18" />
      <path
         d="m 561,537 c 14,23 21,51 19,83"
         fill="none"
         stroke="#082033"
         stroke-width="10"
         stroke-linecap="round"
         transform="translate(0,14)"
         id="path19" />
      <path
         d="m 622,531 c 16,26 25,61 23,98"
         fill="none"
         stroke="#082033"
         stroke-width="10"
         stroke-linecap="round"
         transform="translate(0,14)"
         id="path20" />
    </g>
    <g
       id="g26">
      <path
         d="m 408,592 c 112,-94 292,-116 407,-62 43,18 79,43 115,82 -51,14 -76,38 -95,78 -52,94 -186,150 -306,133 -73,-10 -133,-43 -186,-99 32,-37 52,-79 65,-132 z"
         fill="url(#fishFill)"
         id="path21"
         style="fill:url(#fishFill)" />
      <path
         d="m 342,724 c -50,12 -90,38 -131,79 9,-70 24,-123 48,-168 31,31 57,61 83,89 z"
         fill="#f08c2b"
         id="path22" />
      <path
         d="m 636,565 c 72,-17 156,0 215,47 -42,19 -66,45 -87,82 -24,41 -58,74 -103,98 -41,21 -89,32 -132,31 -73,-10 -133,-43 -186,-99 32,-37 52,-79 65,-132 62,1 149,-7 228,-27 z"
         fill="#ffbe55"
         fill-opacity="0.45"
         id="path23" />
      <circle
         cx="788"
         cy="598"
         r="12"
         fill="#16344b"
         id="circle23" />
      <path
         d="m 827,609 c 25,2 48,13 65,33"
         fill="none"
         stroke="#16344b"
         stroke-width="9"
         stroke-linecap="round"
         id="path24" />
      <path
         d="m 561,537 c 14,23 21,51 19,83"
         fill="none"
         stroke="#c86b1f"
         stroke-width="10"
         stroke-linecap="round"
         id="path25" />
      <path
         d="m 622,531 c 16,26 25,61 23,98"
         fill="none"
         stroke="#c86b1f"
         stroke-width="10"
         stroke-linecap="round"
         id="path26" />
    </g>
    <g
       opacity="0.62"
       id="g29"
       transform="translate(1.6140351,-122.66667)">
      <path
         d="m 860,615 c 37,20 66,52 84,90"
         fill="none"
         stroke="#fff5d0"
         stroke-width="9"
         stroke-linecap="round"
         id="path27" />
      <path
         d="m 888,597 c 45,25 80,66 99,117"
         fill="none"
         stroke="#fff5d0"
         stroke-width="7"
         stroke-linecap="round"
         id="path28" />
      <path
         d="m 910,575 c 53,30 95,80 114,143"
         fill="none"
         stroke="#fff5d0"
         stroke-width="5"
         stroke-linecap="round"
         id="path29" />
    </g>
  </g>
  <path
     d="M600 58 L1074 332 L1074 880 L600 1154 L126 880 L126 332 Z"
     fill="none"
     stroke="#0a2033"
     stroke-width="26"
     id="path30" />
  <path
     d="M600 83 L1053 344 L1053 868 L600 1129 L147 868 L147 344 Z"
     fill="none"
     stroke="#f7f3e8"
     stroke-width="7"
     stroke-opacity="0.72"
     id="path31" />
  <text
     x="598.78662"
     y="910.64911"
     text-anchor="middle"
     font-family="'Trebuchet MS', 'DejaVu Sans', Arial, sans-serif"
     font-size="112px"
     font-weight="700"
     letter-spacing="1.8"
     fill="#ffffff"
     stroke="#04131f"
     stroke-width="8"
     paint-order="stroke fill"
     id="text31"
     style="font-weight:700;font-size:112px;font-family:'Trebuchet MS', 'DejaVu Sans', Arial, sans-serif;letter-spacing:1.8;text-anchor:middle;fill:#ffffff;stroke:#04131f;stroke-width:8;paint-order:stroke fill"><tspan
       style="font-style:normal;font-variant:normal;font-weight:normal;font-stretch:normal;font-size:186.667px;font-family:'Trebuchet MS', 'DejaVu Sans', Arial, sans-serif;-inkscape-font-specification:'Trebuchet MS, DejaVu Sans, Arial, sans-serif, Normal';font-variant-ligatures:normal;font-variant-caps:normal;font-variant-numeric:normal;font-variant-east-asian:normal"
       id="tspan33">acoustic</tspan></text>
  <text
     x="602.19818"
     y="1043.6492"
     text-anchor="middle"
     font-family="Trebuchet MS, DejaVu Sans, Arial, sans-serif"
     font-size="132"
     font-weight="800"
     fill="#ffe08a"
     stroke="#04131f"
     stroke-width="10"
     paint-order="stroke fill"
     id="text32"
     style="font-style:normal;font-variant:normal;font-weight:800;font-stretch:normal;font-size:182.667px;font-family:Sans;-inkscape-font-specification:'Sans, Ultra-Bold';font-variant-ligatures:normal;font-variant-caps:normal;font-variant-numeric:normal;font-variant-east-asian:normal;text-anchor:middle;fill:#ffe08a;stroke:#04131f;stroke-width:10;paint-order:stroke fill"><tspan
       style="font-style:normal;font-variant:normal;font-weight:bold;font-stretch:normal;font-size:209.333px;font-family:'Trebuchet MS', 'DejaVu Sans', Arial, sans-serif;-inkscape-font-specification:'Trebuchet MS, DejaVu Sans, Arial, sans-serif, Bold';font-variant-ligatures:normal;font-variant-caps:normal;font-variant-numeric:normal;font-variant-east-asian:normal"
       id="tspan34">TS</tspan></text>
</svg>
