<?xml version="1.0" encoding="UTF-8" standalone="no"?>
<svg
   viewBox="0 0 665.20538 293.56436"
   role="img"
   aria-labelledby="title desc"
   version="1.1"
   id="svg13"
   sodipodi:docname="calibration-phase-shift-schematic.svg"
   inkscape:version="1.4.3 (0d15f75, 2025-12-25)"
   width="665.20538"
   height="293.56436"
   xmlns:inkscape="http://www.inkscape.org/namespaces/inkscape"
   xmlns:sodipodi="http://sodipodi.sourceforge.net/DTD/sodipodi-0.dtd"
   xmlns="http://www.w3.org/2000/svg"
   xmlns:svg="http://www.w3.org/2000/svg"><sodipodi:namedview
   id="namedview13"
   pagecolor="#ffffff"
   bordercolor="#000000"
   borderopacity="0.25"
   inkscape:showpageshadow="2"
   inkscape:pageopacity="0.0"
   inkscape:pagecheckerboard="0"
   inkscape:deskcolor="#d1d1d1"
   inkscape:zoom="1.4394674"
   inkscape:cx="352.90831"
   inkscape:cy="195.90579"
   inkscape:window-width="1920"
   inkscape:window-height="1080"
   inkscape:window-x="1920"
   inkscape:window-y="0"
   inkscape:window-maximized="1"
   inkscape:current-layer="svg13" />
<title
   id="title">Modal phase-shift bookkeeping for a solid sphere</title>
<desc
   id="desc">Schematic showing that each incident partial wave is matched at the sphere boundary and returned as an outgoing partial wave whose complex coefficient is parameterized by the modal phase shift eta_m.</desc>
<style
   id="style1">
    .bg { fill: #faf6ef; }
    .head { font: 700 24px Georgia, serif; fill: #23314a; }
    .body { font: 17px Georgia, serif; fill: #2d2a26; }
    .small { font: 15px Georgia, serif; fill: #46576f; }
    .box { fill: #fffdfa; stroke: #4e6b93; stroke-width: 2.6; rx: 18; ry: 18; }
    .sphere { fill: #dfe7f3; stroke: #4e6b93; stroke-width: 3; }
    .incident { stroke: #8f2d56; stroke-width: 4; fill: none; }
    .outgoing { stroke: #1f6f5f; stroke-width: 4; fill: none; }
    .link { stroke: #c48b1f; stroke-width: 3; fill: none; marker-end: url(#arrow); }
    .arrow { stroke: #4f4a44; stroke-width: 2.6; fill: none; marker-end: url(#arrow); }
  </style>
<defs
   id="defs1">
  <marker
     id="arrow"
     markerWidth="10"
     markerHeight="10"
     refX="8"
     refY="5"
     orient="auto">
    <path
       d="M 0,0 10,5 0,10 Z"
       fill="#4f4a44"
       id="path1" />
  </marker>
  <clipPath
     id="clip_path_1"
     clipPathUnits="userSpaceOnUse">
   <path
   d="M 0,0 H 609 V 503 H 0 Z"
   id="path1-4" />

  </clipPath>
</defs>
<rect
   class="bg"
   width="665.20538"
   height="293.56436"
   id="rect1"
   x="0"
   y="0"
   style="stroke-width:1" />
<text
   x="332.62027"
   y="28.695765"
   text-anchor="middle"
   class="head"
   id="text1"
   style="font-style:normal;font-variant:normal;font-weight:700;font-stretch:normal;font-size:24px;line-height:normal;font-family:Georgia, serif">Modal phase-shift bookkeeping for a solid sphere</text>
<circle
   cx="276.38034"
   cy="182.45015"
   r="96"
   class="sphere"
   id="circle1" />
<circle
   cx="276.38034"
   cy="182.45015"
   r="4"
   fill="#4e6b93"
   id="circle2" />
<g
   id="g13"
   transform="matrix(1.3242872,0,0,1.2977292,-17.602265,-85.79047)"
   style="stroke-width:0.762811">
  <line
     x1="71.157898"
     y1="206.52632"
     x2="141.1579"
     y2="206.52632"
     class="incident"
     id="line4" />
  <polygon
     points="111,201 111,215 124,208 "
     fill="#8f2d56"
     id="polygon4"
     transform="translate(24.278584,-1.3000089)"
     style="stroke-width:0.762811" />
</g>
<text
   x="7.7487488"
   y="164.34489"
   class="body"
   id="text5"
   style="font-style:normal;font-variant:normal;font-weight:normal;font-stretch:normal;font-size:17px;line-height:normal;font-family:Georgia, serif;fill:#8f2d56;fill-opacity:1">Incident partial wave</text>
<text
   x="76.976822"
   y="232.55544"
   class="small"
   id="text6"
   style="font-style:normal;font-variant:normal;font-weight:normal;font-stretch:normal;font-size:15px;line-height:normal;font-family:Georgia, serif;fill:#46576f"><tspan
     sodipodi:role="line"
     id="tspan15"
     x="76.976822"
     y="232.55544"><tspan
   style="font-style:italic;font-variant:normal;font-weight:normal;font-stretch:normal;font-size:15px;font-family:Sans;-inkscape-font-specification:'Sans, Italic';font-variant-ligatures:normal;font-variant-caps:normal;font-variant-numeric:normal;font-variant-east-asian:normal"
   id="tspan18">j</tspan><tspan
   style="font-size:65%;baseline-shift:sub"
   id="tspan19">m</tspan>(k<tspan
   style="font-size:65%;baseline-shift:sub"
   id="tspan20">1</tspan> r) <tspan
   style="font-style:italic;font-variant:normal;font-weight:normal;font-stretch:normal;font-size:15px;font-family:Georgia, serif;-inkscape-font-specification:'Georgia, serif, Italic';font-variant-ligatures:normal;font-variant-caps:normal;font-variant-numeric:normal;font-variant-east-asian:normal"
   id="tspan17">P</tspan><tspan
   style="font-size:65%;baseline-shift:sub"
   id="tspan16">m</tspan>(cos θ)</tspan></text>
<g
   id="g20"
   transform="matrix(0.7417955,0,0,1,15.95658,-25.549856)"
   style="stroke-width:1.16107">
  <line
     x1="482"
     y1="208"
     x2="604"
     y2="208"
     class="outgoing"
     id="line6" />
  <polygon
     points="438,208 425,201 425,215 "
     fill="#1f6f5f"
     id="polygon6"
     transform="translate(173.36842)"
     style="stroke-width:1.16107" />
</g>
<text
   x="395.77945"
   y="130.66632"
   class="body"
   id="text7"
   style="font-style:normal;font-variant:normal;font-weight:normal;font-stretch:normal;font-size:17px;line-height:normal;font-family:Georgia, serif;fill:#4f4a44;fill-opacity:1">Outgoing partial wave</text>
<g
   id="g28"
   transform="translate(-245.19862,-67.795463)">
  <rect
     x="642.24561"
     y="115.78947"
     width="231.64911"
     height="65.929825"
     class="box"
     id="rect8" />
  <text
     x="648"
     y="136"
     class="body"
     id="text9"
     style="font-style:normal;font-variant:normal;font-weight:normal;font-stretch:normal;font-size:17px;line-height:normal;font-family:Georgia, serif">Phase-shift parameterization</text>
  <text
     x="648"
     y="155.27905"
     class="small"
     id="text10"
     style="font-style:normal;font-variant:normal;font-weight:normal;font-stretch:normal;font-size:15px;line-height:normal;font-family:Georgia, serif">B<tspan
   style="font-size:65%;baseline-shift:sub"
   id="tspan28">m</tspan> is written through the factor</text>
  <text
     x="648"
     y="174"
     class="small"
     id="text11"
     style="font-style:normal;font-variant:normal;font-weight:normal;font-stretch:normal;font-size:15px;line-height:normal;font-family:Georgia, serif;fill:#46576f">sin(<tspan
   style="font-style:italic;font-variant:normal;font-weight:normal;font-stretch:normal;font-size:15px;font-family:Sans;-inkscape-font-specification:'Sans, Italic';font-variant-ligatures:normal;font-variant-caps:normal;font-variant-numeric:normal;font-variant-east-asian:normal"
   id="tspan25">η</tspan><tspan
   style="font-size:65%;baseline-shift:sub"
   id="tspan24">m</tspan>) exp(i <tspan
   style="font-style:italic;font-variant:normal;font-weight:normal;font-stretch:normal;font-size:15px;font-family:Sans;-inkscape-font-specification:'Sans, Italic';font-variant-ligatures:normal;font-variant-caps:normal;font-variant-numeric:normal;font-variant-east-asian:normal"
   id="tspan26">η</tspan><tspan
   style="font-size:65%;baseline-shift:sub"
   id="tspan27">m</tspan>)</text>
</g>
<path
   d="m 469.13271,179.73781 c 37.44701,-19.98915 33.49519,-29.74455 38.94701,-40.33642"
   class="link"
   id="path11"
   sodipodi:nodetypes="cc" />
<text
   x="461.37772"
   y="151.47546"
   class="body"
   id="text12"
   style="font-style:normal;font-variant:normal;font-weight:normal;font-stretch:normal;font-size:17px;line-height:normal;font-family:Georgia, serif;fill:#2d2a26"><tspan
     sodipodi:role="line"
     id="tspan21"
     x="461.37772"
     y="151.47546"><tspan
       style="font-style:italic;font-variant:normal;font-weight:normal;font-stretch:normal;font-size:17px;font-family:Georgia, serif;-inkscape-font-specification:'Georgia, serif, Italic';font-variant-ligatures:normal;font-variant-caps:normal;font-variant-numeric:normal;font-variant-east-asian:normal"
       id="tspan23">η</tspan><tspan
       style="font-size:65%;baseline-shift:sub"
       id="tspan22">m</tspan></tspan></text>
<path
   d="m 182.83647,212.34488 c 41,26 150,26 192,0"
   class="arrow"
   id="path12" />
<text
   x="490.52438"
   y="246.80898"
   text-anchor="middle"
   class="small"
   id="text13"
   style="font-style:normal;font-variant:normal;font-weight:normal;font-stretch:normal;font-size:15px;line-height:1;font-family:Georgia, serif;-inkscape-font-specification:'Georgia, serif, Normal';font-variant-ligatures:normal;font-variant-caps:normal;font-variant-numeric:normal;font-variant-east-asian:normal;text-anchor:middle;fill:#4f4a44;fill-opacity:1"><tspan
     sodipodi:role="line"
     id="tspan41"
     x="490.52438"
     y="246.80898">Matching at r = a is done mode by mode</tspan></text>

 
 
 
 
 
 

 
 
<g
   id="g40"
   transform="translate(-65.409144,-17.6902)">
  <text
     x="524.91223"
     y="224.21054"
     class="small"
     id="text8"
     style="font-style:normal;font-variant:normal;font-weight:normal;font-stretch:normal;font-size:15px;line-height:normal;font-family:Georgia, serif;-inkscape-font-specification:'Georgia, serif, Normal';font-variant-ligatures:normal;font-variant-caps:normal;font-variant-numeric:normal;font-variant-east-asian:normal;fill:#46576f"><tspan
       sodipodi:role="line"
       id="tspan31"
       x="524.91223"
       y="224.21054">(k<tspan
   style="font-size:65%;baseline-shift:sub"
   id="tspan38">1</tspan>r) <tspan
   style="font-style:italic;font-variant:normal;font-weight:normal;font-stretch:normal;font-size:15px;font-family:Georgia, serif;-inkscape-font-specification:'Georgia, serif, Italic';font-variant-ligatures:normal;font-variant-caps:normal;font-variant-numeric:normal;font-variant-east-asian:normal"
   id="tspan39">P</tspan><tspan
   style="font-size:65%;baseline-shift:sub"
   id="tspan40">m</tspan>(cos θ)</tspan></text>
  <g
     clip-path="url(#clip_path_1)"
     id="g6"
     transform="matrix(0.04130082,0,0,0.03698791,497.88673,208.15214)"
     style="fill:#46576f;fill-opacity:1;stroke-width:25.5852">
  <path
   fill="#000000"
   stroke="none"
   d="m 95,157 c 2,0 2,-4 2,-5 0,-4 -2,-6 -5,-6 -2,0 -6,2 -7,2 l -43,4 c -5,0 -8,0 -8,9 0,3 3,3 10,3 20,0 20,4 20,7 0,2 0,7 0,7 L 0,427 c 0,0 0,3 0,5 0,5 4,11 12,11 9,0 14,-7 16,-13 0,-5 14,-60 18,-72 2,-9 3,-18 7,-26 3,-16 3,-16 11,-30 8,-13 26,-39 56,-39 18,0 19,17 19,26 0,27 -19,76 -24,94 -6,14 -7,17 -7,26 0,20 12,34 31,34 41,0 55,-62 55,-66 0,-3 -3,-3 -7,-3 -5,0 -5,2 -7,7 -4,12 -14,53 -39,53 -9,0 -9,-7 -9,-12 0,-11 4,-22 7,-32 9,-21 25,-69 25,-94 0,-33 -23,-44 -42,-44 -29,0 -44,16 -57,28 z"
   id="path2"
   style="fill:#46576f;fill-opacity:1;stroke-width:25.5852" />

  <path
   fill="#000000"
   stroke="none"
   d="m 321,0 c -56,39 -71,102 -71,146 0,43 13,106 71,147 2,0 5,0 5,-4 0,-1 -1,-1 -3,-3 -39,-36 -53,-85 -53,-140 0,-79 30,-118 55,-139 0,-2 1,-2 1,-3 0,-4 -3,-4 -5,-4 z"
   id="path3"
   style="fill:#46576f;fill-opacity:1;stroke-width:25.5852" />

  <path
   fill="#000000"
   stroke="none"
   d="m 446,34 c 0,-9 -1,-9 -9,-9 -19,19 -45,19 -58,19 v 11 c 7,0 27,0 43,-9 v 150 c 0,10 0,14 -29,14 h -12 v 10 c 5,0 42,-1 53,-1 9,0 46,1 53,1 v -10 h -13 c -28,0 -28,-4 -28,-14 z"
   id="path4"
   style="fill:#46576f;fill-opacity:1;stroke-width:25.5852" />

  <path
   fill="#000000"
   stroke="none"
   d="m 542,0 c -2,0 -6,0 -6,4 0,1 0,1 2,3 26,25 55,64 55,139 0,62 -20,108 -51,138 -6,4 -6,5 -6,5 0,2 0,4 4,4 3,0 32,-20 51,-55 12,-25 21,-56 21,-92 C 612,106 600,41 542,0 Z"
   id="path5"
   style="fill:#46576f;fill-opacity:1;stroke-width:25.5852" />

  <path
   fill="#000000"
   stroke="none"
   d="m 344,464 c -2,5 -5,16 -5,18 0,5 5,8 10,8 6,0 11,-3 13,-7 0,-1 3,-10 5,-17 0,-6 3,-20 5,-27 2,-7 4,-12 5,-19 4,-13 4,-14 9,-23 11,-14 25,-30 48,-30 16,0 18,12 18,19 0,18 -13,51 -18,64 -4,7 -4,10 -4,16 0,16 13,24 27,24 30,0 42,-40 42,-44 0,-5 -3,-5 -3,-5 -6,0 -6,2 -6,5 -7,25 -19,36 -31,36 -7,0 -7,-4 -7,-9 0,-7 1,-11 7,-25 3,-9 14,-41 14,-56 0,-6 0,-18 -11,-27 -5,-3 -12,-7 -26,-7 -27,0 -44,18 -53,30 -2,-25 -23,-30 -39,-30 -23,0 -41,14 -49,27 -2,-20 -20,-27 -32,-27 -13,0 -20,9 -23,16 -7,11 -11,28 -11,28 0,5 4,5 6,5 3,0 3,-1 7,-8 3,-18 8,-32 21,-32 7,0 9,5 9,14 0,5 -2,16 -4,25 -2,7 -5,19 -7,26 l -9,37 c -2,4 -3,11 -3,13 0,5 5,8 10,8 6,0 9,-3 11,-7 2,-1 3,-10 5,-17 2,-6 5,-20 7,-27 2,-7 4,-12 6,-19 3,-13 3,-14 12,-27 7,-12 21,-26 44,-26 16,0 18,14 18,19 0,7 -2,13 -6,29 z"
   id="path6"
   style="fill:#46576f;fill-opacity:1;stroke-width:25.5852" />

 </g>
  <text
     x="478.91226"
     y="224.21054"
     class="small"
     id="text36"
     style="font-style:normal;font-variant:normal;font-weight:normal;font-stretch:normal;font-size:15px;line-height:normal;font-family:Georgia, serif;-inkscape-font-specification:'Georgia, serif, Normal';font-variant-ligatures:normal;font-variant-caps:normal;font-variant-numeric:normal;font-variant-east-asian:normal;fill:#46576f"><tspan
       sodipodi:role="line"
       id="tspan36"
       x="478.91226"
       y="224.21054"><tspan
         style="font-style:italic;font-variant:normal;font-weight:normal;font-stretch:normal;font-size:15px;font-family:Georgia, serif;-inkscape-font-specification:'Georgia, serif, Italic';font-variant-ligatures:normal;font-variant-caps:normal;font-variant-numeric:normal;font-variant-east-asian:normal"
         id="tspan34">B</tspan><tspan
         style="font-size:65%;baseline-shift:sub"
         id="tspan35">m</tspan></tspan></text>
</g>
</svg>
