<svg xmlns="http://www.w3.org/2000/svg" width="900" height="420" viewBox="0 0 900 420">
  <rect width="900" height="420" fill="#fbfaf5"/>
  <defs>
    <marker id="arrow" markerWidth="12" markerHeight="12" refX="10" refY="6" orient="auto">
      <path d="M0,0 L12,6 L0,12 z" fill="#203040"/>
    </marker>
  </defs>
  <text x="58" y="62" font-family="Georgia, serif" font-size="24" fill="#203040">deterministic DWBA segment sum</text>
  <line x1="60" y1="92" x2="220" y2="92" stroke="#203040" stroke-width="4" marker-end="url(#arrow)"/>
  <line x1="60" y1="126" x2="220" y2="126" stroke="#203040" stroke-width="4" marker-end="url(#arrow)"/>
  <line x1="60" y1="160" x2="220" y2="160" stroke="#203040" stroke-width="4" marker-end="url(#arrow)"/>

  <path d="M245 220 C320 150, 420 150, 500 220 S665 292, 760 220" fill="none" stroke="#0f5c5c" stroke-width="8" stroke-linecap="round"/>
  <circle cx="322" cy="188" r="7" fill="#bb4d00"/>
  <circle cx="405" cy="170" r="7" fill="#bb4d00"/>
  <circle cx="492" cy="188" r="7" fill="#bb4d00"/>
  <circle cx="580" cy="220" r="7" fill="#bb4d00"/>
  <circle cx="670" cy="248" r="7" fill="#bb4d00"/>

  <text x="282" y="150" font-family="Georgia, serif" font-size="22" fill="#203040">q<tspan baseline-shift="sub" font-size="70%">1</tspan></text>
  <text x="372" y="132" font-family="Georgia, serif" font-size="22" fill="#203040">q<tspan baseline-shift="sub" font-size="70%">2</tspan></text>
  <text x="460" y="150" font-family="Georgia, serif" font-size="22" fill="#203040">q<tspan baseline-shift="sub" font-size="70%">3</tspan></text>
  <text x="548" y="204" font-family="Georgia, serif" font-size="22" fill="#203040">q<tspan baseline-shift="sub" font-size="70%">4</tspan></text>
  <text x="638" y="282" font-family="Georgia, serif" font-size="22" fill="#203040">q<tspan baseline-shift="sub" font-size="70%">5</tspan></text>

  <path d="M322 188 C300 128, 344 112, 360 156" fill="none" stroke="#7a3f0e" stroke-width="3" stroke-dasharray="7 6" marker-end="url(#arrow)"/>
  <path d="M405 170 C382 112, 432 104, 446 144" fill="none" stroke="#7a3f0e" stroke-width="3" stroke-dasharray="7 6" marker-end="url(#arrow)"/>
  <path d="M492 188 C470 128, 520 126, 532 164" fill="none" stroke="#7a3f0e" stroke-width="3" stroke-dasharray="7 6" marker-end="url(#arrow)"/>
  <path d="M580 220 C560 152, 616 156, 626 194" fill="none" stroke="#7a3f0e" stroke-width="3" stroke-dasharray="7 6" marker-end="url(#arrow)"/>
  <path d="M670 248 C646 186, 704 190, 716 224" fill="none" stroke="#7a3f0e" stroke-width="3" stroke-dasharray="7 6" marker-end="url(#arrow)"/>

  <text x="518" y="102" font-family="Georgia, serif" font-size="24" fill="#7a3f0e">random phase factors e^(i phi<tspan baseline-shift="sub" font-size="70%">j</tspan>)</text>
  <text x="560" y="136" font-family="Georgia, serif" font-size="22" fill="#203040">phi<tspan baseline-shift="sub" font-size="70%">j</tspan> ~ N(0, sigma<tspan baseline-shift="sub" font-size="70%">phi</tspan><tspan baseline-shift="super" font-size="70%">2</tspan>)</text>

  <line x1="210" y1="320" x2="718" y2="320" stroke="#5a6b7a" stroke-width="3" marker-end="url(#arrow)"/>
  <text x="266" y="356" font-family="Georgia, serif" font-size="24" fill="#203040">cross terms damped by exp(-sigma<tspan baseline-shift="sub" font-size="70%">phi</tspan><tspan baseline-shift="super" font-size="70%">2</tspan>), self terms unchanged</text>
</svg>