<svg xmlns="http://www.w3.org/2000/svg" width="760" height="300" viewBox="0 0 760 300">
  <rect width="760" height="300" fill="#faf7ef"/>
  <text x="380" y="32" text-anchor="middle" font-family="Georgia, serif" font-size="22" fill="#213547">Coherence Regimes for Component Summation</text>

  <rect x="30" y="60" width="220" height="190" rx="16" fill="#f3e7c8" stroke="#9a7b28" stroke-width="2"/>
  <rect x="270" y="60" width="220" height="190" rx="16" fill="#d9ece5" stroke="#427a6b" stroke-width="2"/>
  <rect x="510" y="60" width="220" height="190" rx="16" fill="#e7edf6" stroke="#47678f" stroke-width="2"/>

  <text x="140" y="90" text-anchor="middle" font-family="Georgia, serif" font-size="18" fill="#5d4815">Coherent</text>
  <text x="380" y="90" text-anchor="middle" font-family="Georgia, serif" font-size="18" fill="#1f574a">Partial Coherence</text>
  <text x="620" y="90" text-anchor="middle" font-family="Georgia, serif" font-size="18" fill="#2c4768">Incoherent</text>

  <line x1="70" y1="145" x2="205" y2="145" stroke="#8b1e3f" stroke-width="5"/>
  <line x1="70" y1="175" x2="205" y2="175" stroke="#8b1e3f" stroke-width="5"/>
  <circle cx="95" cy="145" r="7" fill="#8b1e3f"/>
  <circle cx="180" cy="175" r="7" fill="#8b1e3f"/>
  <text x="140" y="220" text-anchor="middle" font-family="Arial, sans-serif" font-size="14" fill="#42361b">Fixed relative phase</text>
  <text x="140" y="240" text-anchor="middle" font-family="Arial, sans-serif" font-size="14" fill="#42361b">Cross terms fully retained</text>

  <line x1="310" y1="145" x2="445" y2="145" stroke="#8b1e3f" stroke-width="5" stroke-dasharray="8 6"/>
  <line x1="310" y1="175" x2="445" y2="175" stroke="#8b1e3f" stroke-width="5" stroke-dasharray="8 6"/>
  <circle cx="335" cy="145" r="7" fill="#8b1e3f"/>
  <circle cx="420" cy="175" r="7" fill="#8b1e3f"/>
  <path d="M 320 120 Q 380 95 440 120" fill="none" stroke="#427a6b" stroke-width="3"/>
  <text x="380" y="220" text-anchor="middle" font-family="Arial, sans-serif" font-size="14" fill="#25453b">Phase memory reduced</text>
  <text x="380" y="240" text-anchor="middle" font-family="Arial, sans-serif" font-size="14" fill="#25453b">Cross terms damped by |Γ|</text>

  <line x1="550" y1="145" x2="685" y2="145" stroke="#8b1e3f" stroke-width="5" stroke-dasharray="3 10"/>
  <line x1="550" y1="175" x2="685" y2="175" stroke="#8b1e3f" stroke-width="5" stroke-dasharray="3 10"/>
  <circle cx="575" cy="145" r="7" fill="#8b1e3f"/>
  <circle cx="660" cy="175" r="7" fill="#8b1e3f"/>
  <text x="620" y="220" text-anchor="middle" font-family="Arial, sans-serif" font-size="14" fill="#243a56">Random relative phase</text>
  <text x="620" y="240" text-anchor="middle" font-family="Arial, sans-serif" font-size="14" fill="#243a56">Mean cross terms vanish</text>
</svg>